<?xml version="1.0" encoding="UTF-8" ?>
<!DOCTYPE svg PUBLIC "-//W3C//DTD SVG 1.1//EN" "http://www.w3.org/Graphics/SVG/1.1/DTD/svg11.dtd">
<svg width="512pt" height="512pt" viewBox="0 0 512 512" version="1.1" xmlns="http://www.w3.org/2000/svg">
<g id="#ffffffff">
<path fill="#ffffff" opacity="1.00" d=" M 221.04 112.96 C 252.57 106.22 286.02 108.55 316.23 119.89 C 347.14 131.46 374.60 152.65 392.64 180.40 C 406.90 202.07 415.01 227.76 415.52 253.72 C 415.65 261.15 415.61 268.60 415.55 276.03 C 415.26 274.51 414.95 272.99 414.61 271.49 C 412.46 292.40 404.68 312.61 392.69 329.85 C 380.09 348.11 362.44 362.52 342.86 372.77 C 296.65 395.74 240.92 398.72 192.60 380.52 C 166.88 371.20 142.29 356.48 125.57 334.42 C 115.98 323.06 109.32 309.54 104.37 295.61 C 102.07 288.43 100.48 281.02 99.61 273.53 C 99.20 273.55 98.40 273.59 97.99 273.61 C 98.06 262.41 97.52 251.15 99.01 240.01 C 102.38 211.76 114.96 184.90 133.70 163.60 C 156.31 137.83 187.57 120.06 221.04 112.96 M 171.51 180.70 C 156.21 184.41 143.57 195.61 135.99 209.15 C 127.24 224.89 125.14 244.44 131.38 261.44 C 136.06 274.25 146.20 285.35 159.27 289.78 C 169.71 293.47 181.44 292.60 191.56 288.29 C 219.12 276.48 233.86 242.66 225.56 214.16 C 221.97 201.09 213.00 189.28 200.62 183.43 C 191.62 179.13 181.15 178.29 171.51 180.70 M 320.56 180.72 C 304.70 184.73 292.46 198.39 288.22 213.93 C 280.80 239.31 291.38 268.84 313.41 283.54 C 324.49 291.08 338.84 294.23 351.87 290.58 C 365.89 286.83 377.08 275.44 382.09 262.01 C 391.97 236.39 382.26 204.98 360.00 189.03 C 348.86 180.81 334.09 177.18 320.56 180.72 M 228.62 295.46 C 226.61 301.11 228.80 307.85 233.70 311.28 C 239.14 314.90 244.78 318.22 250.27 321.76 C 250.29 328.63 250.26 335.51 250.28 342.38 C 239.53 341.01 229.27 336.09 221.52 328.52 C 219.13 326.06 215.36 324.68 212.07 326.11 C 206.90 327.78 205.05 335.16 208.83 339.08 C 221.48 352.24 239.80 359.62 258.03 359.20 C 275.50 358.97 292.79 351.55 304.87 338.91 C 308.59 334.77 306.40 327.32 300.97 325.95 C 297.33 324.56 293.71 326.65 291.26 329.25 C 283.67 336.42 273.78 340.91 263.48 342.40 C 263.40 335.50 263.43 328.59 263.47 321.68 C 267.67 319.11 271.81 316.45 276.02 313.89 C 280.16 311.62 284.27 308.45 285.37 303.59 C 287.81 295.57 281.45 286.55 273.12 286.07 C 262.73 285.89 252.33 286.03 241.94 285.99 C 236.08 285.89 230.49 289.92 228.62 295.46 Z" />
<path fill="#ffffff" opacity="1.00" d=" M 180.36 203.59 C 185.99 201.18 192.95 202.40 197.24 206.82 C 203.79 213.20 204.08 224.02 199.77 231.73 C 196.35 238.06 189.45 242.97 182.04 242.30 C 176.39 241.96 171.32 238.07 169.05 232.98 C 163.97 222.33 169.36 207.99 180.36 203.59 Z" />
<path fill="#ffffff" opacity="1.00" d=" M 322.29 203.18 C 333.40 199.42 344.64 209.27 346.20 220.05 C 348.30 229.24 342.98 240.60 333.03 242.13 C 321.46 244.04 311.50 232.98 311.12 221.98 C 310.43 214.25 314.64 205.74 322.29 203.18 Z" />
</g>
<g id="#000000ff">
<path fill="#000000" opacity="1.00" d=" M 153.87 120.12 C 180.29 102.59 211.34 92.23 242.94 90.02 C 283.66 86.98 325.46 97.33 359.52 120.01 C 368.13 110.17 380.00 103.08 392.97 100.94 C 407.41 98.40 422.84 101.66 434.83 110.15 C 451.17 121.21 460.90 141.24 459.24 160.93 C 458.02 180.76 445.31 199.06 427.55 207.76 C 430.81 217.97 433.14 228.49 434.34 239.16 C 435.69 251.70 435.39 264.35 435.21 276.95 C 433.91 317.52 413.63 356.48 382.51 382.24 C 365.82 396.39 345.98 406.43 325.26 413.22 C 279.07 428.64 227.53 427.36 182.17 409.65 C 166.42 403.41 150.98 395.99 137.49 385.64 C 110.91 365.84 90.91 337.07 82.67 304.88 C 78.72 290.29 77.87 275.10 78.21 260.06 C 77.88 242.32 80.71 224.65 85.90 207.72 C 70.84 200.44 59.32 186.20 55.54 169.88 C 52.38 156.77 54.12 142.53 60.44 130.60 C 67.06 117.86 78.69 107.84 92.27 103.18 C 113.75 95.45 139.33 102.57 153.87 120.12 M 221.04 112.96 C 187.57 120.06 156.31 137.83 133.70 163.60 C 114.96 184.90 102.38 211.76 99.01 240.01 C 97.52 251.15 98.06 262.41 97.99 273.61 C 98.97 310.39 117.76 345.76 146.48 368.47 C 159.05 378.80 173.74 386.10 188.79 392.07 C 236.04 410.93 290.86 409.58 337.14 388.46 C 360.15 378.15 380.37 361.45 394.32 340.40 C 407.11 321.43 414.72 298.93 415.55 276.03 C 415.61 268.60 415.65 261.15 415.52 253.72 C 415.01 227.76 406.90 202.07 392.64 180.40 C 374.60 152.65 347.14 131.46 316.23 119.89 C 286.02 108.55 252.57 106.22 221.04 112.96 Z" />
<path fill="#000000" opacity="1.00" d=" M 171.51 180.70 C 181.15 178.29 191.62 179.13 200.62 183.43 C 213.00 189.28 221.97 201.09 225.56 214.16 C 233.86 242.66 219.12 276.48 191.56 288.29 C 181.44 292.60 169.71 293.47 159.27 289.78 C 146.20 285.35 136.06 274.25 131.38 261.44 C 125.14 244.44 127.24 224.89 135.99 209.15 C 143.57 195.61 156.21 184.41 171.51 180.70 M 180.36 203.59 C 169.36 207.99 163.97 222.33 169.05 232.98 C 171.32 238.07 176.39 241.96 182.04 242.30 C 189.45 242.97 196.35 238.06 199.77 231.73 C 204.08 224.02 203.79 213.20 197.24 206.82 C 192.95 202.40 185.99 201.18 180.36 203.59 Z" />
<path fill="#000000" opacity="1.00" d=" M 320.56 180.72 C 334.09 177.18 348.86 180.81 360.00 189.03 C 382.26 204.98 391.97 236.39 382.09 262.01 C 377.08 275.44 365.89 286.83 351.87 290.58 C 338.84 294.23 324.49 291.08 313.41 283.54 C 291.38 268.84 280.80 239.31 288.22 213.93 C 292.46 198.39 304.70 184.73 320.56 180.72 M 322.29 203.18 C 314.64 205.74 310.43 214.25 311.12 221.98 C 311.50 232.98 321.46 244.04 333.03 242.13 C 342.98 240.60 348.30 229.24 346.20 220.05 C 344.64 209.27 333.40 199.42 322.29 203.18 Z" />
</g>
<g id="#e6e6e6ff">
<path fill="#e6e6e6" opacity="1.00" d=" M 392.69 329.85 C 404.68 312.61 412.46 292.40 414.61 271.49 C 414.95 272.99 415.26 274.51 415.55 276.03 C 414.72 298.93 407.11 321.43 394.32 340.40 C 380.37 361.45 360.15 378.15 337.14 388.46 C 290.86 409.58 236.04 410.93 188.79 392.07 C 173.74 386.10 159.05 378.80 146.48 368.47 C 117.76 345.76 98.97 310.39 97.99 273.61 C 98.40 273.59 99.20 273.55 99.61 273.53 C 100.48 281.02 102.07 288.43 104.37 295.61 C 109.32 309.54 115.98 323.06 125.57 334.42 C 142.29 356.48 166.88 371.20 192.60 380.52 C 240.92 398.72 296.65 395.74 342.86 372.77 C 362.44 362.52 380.09 348.11 392.69 329.85 Z" />
</g>
<g id="#010101ff">
<path fill="#010101" opacity="1.00" d=" M 228.62 295.46 C 230.49 289.92 236.08 285.89 241.94 285.99 C 252.33 286.03 262.73 285.89 273.12 286.07 C 281.45 286.55 287.81 295.57 285.37 303.59 C 284.27 308.45 280.16 311.62 276.02 313.89 C 271.81 316.45 267.67 319.11 263.47 321.68 C 263.43 328.59 263.40 335.50 263.48 342.40 C 273.78 340.91 283.67 336.42 291.26 329.25 C 293.71 326.65 297.33 324.56 300.97 325.95 C 306.40 327.32 308.59 334.77 304.87 338.91 C 292.79 351.55 275.50 358.97 258.03 359.20 C 239.80 359.62 221.48 352.24 208.83 339.08 C 205.05 335.16 206.90 327.78 212.07 326.11 C 215.36 324.68 219.13 326.06 221.52 328.52 C 229.27 336.09 239.53 341.01 250.28 342.38 C 250.26 335.51 250.29 328.63 250.27 321.76 C 244.78 318.22 239.14 314.90 233.70 311.28 C 228.80 307.85 226.61 301.11 228.62 295.46 Z" />
</g>
</svg>
